<?xml version="1.0" encoding="UTF-8"?>
<svg version="1.1" xmlns="http://www.w3.org/2000/svg" width="1622" height="969">
<path d="M0 0 C535.26 0 1070.52 0 1622 0 C1622 319.77 1622 639.54 1622 969 C1086.74 969 551.48 969 0 969 C0 649.23 0 329.46 0 0 Z " fill="#FDFDFD" transform="translate(0,0)"/>
<path d="M0 0 C1.47726562 -0.05994141 1.47726562 -0.05994141 2.984375 -0.12109375 C11.41101196 1.32030468 17.32929931 8.11940122 23.0625 13.9921875 C24.28223511 15.22184738 24.28223511 15.22184738 25.52661133 16.47634888 C28.10833631 19.08133516 30.6796455 21.69629802 33.25 24.3125 C35.82205427 26.91980774 38.39630848 29.52488756 40.97338867 32.12722778 C42.57061247 33.74120637 44.16472675 35.35827048 45.75512695 36.97897339 C46.48948975 37.72309479 47.22385254 38.46721619 47.98046875 39.23388672 C48.61364014 39.87832733 49.24681152 40.52276794 49.89916992 41.18673706 C51.85380625 43.05817092 53.84320854 44.82140735 55.89428711 46.58377075 C60.8931508 50.9315603 65.5416191 55.60447166 70.2109375 60.30078125 C71.18412198 61.27588943 72.15753773 62.25076684 73.13116455 63.22543335 C75.21252611 65.30993421 77.29232924 67.39597276 79.37091064 69.48324585 C82.66424127 72.79020451 85.9614773 76.09325114 89.25927734 79.39575195 C96.85324255 87.00171229 104.44216497 94.61269755 112.03103638 102.22373962 C118.99173016 109.20466416 125.95350888 116.18449774 132.91935921 123.16027737 C136.19097086 126.43684195 139.46013575 129.71582174 142.72738647 132.99673462 C144.76711052 135.04396855 146.80894976 137.08908308 148.85134125 139.13365555 C150.23507072 140.52012024 151.61627524 141.9091035 152.99737549 143.29818726 C157.36439392 147.66557181 161.7826153 151.89582315 166.48703003 155.89938354 C169.73123292 158.72981284 172.72698209 161.81238763 175.75 164.875 C176.42998047 165.55876709 177.10996094 166.24253418 177.81054688 166.94702148 C180.68225143 169.83487773 183.54788438 172.72873075 186.4140625 175.62207031 C188.52392787 177.75015725 190.63689645 179.87512917 192.75 182 C193.38357422 182.64187256 194.01714844 183.28374512 194.66992188 183.94506836 C198.41437675 187.70965999 202.28544432 191.2482529 206.3034668 194.7180481 C209.38047291 197.43609267 212.26722685 200.33096467 215.15625 203.24609375 C215.76641968 203.85767838 216.37658936 204.469263 217.00524902 205.09938049 C218.92256165 207.02221802 220.83633702 208.94853094 222.75 210.875 C224.06226585 212.19229059 225.37476395 213.50934986 226.6875 214.82617188 C229.87768506 218.0272861 233.06470651 221.23151865 236.25 224.4375 C240.05923106 222.86094915 242.47178935 220.46324576 245.36645508 217.56396484 C245.8629808 217.06933746 246.35950653 216.57471008 246.87107849 216.06509399 C248.50882011 214.43105159 250.13925513 212.78992566 251.76953125 211.1484375 C252.91253238 210.00424305 254.05590475 208.86041935 255.19963074 207.71694946 C257.59754349 205.31747285 259.99206233 202.91467703 262.3840332 200.50927734 C265.43174167 197.44466584 268.48590353 194.38659043 271.54245472 191.33080101 C273.90638676 188.96659517 276.2676889 186.59977708 278.62814903 184.23210526 C279.75215673 183.10494066 280.87674881 181.97835846 282.00196266 180.85239792 C287.34144816 175.50549302 292.5934023 170.1427112 297.51121521 164.3996582 C301.13849448 160.30639962 305.06795301 156.49880559 308.9453125 152.64453125 C309.85578339 151.73547531 310.76625427 150.82641937 311.70431519 149.88981628 C314.10359459 147.49431698 316.505859 145.101834 318.90881348 142.71002197 C321.34858186 140.28051155 323.78550345 137.84814935 326.22265625 135.41601562 C330.55643089 131.09184904 334.89131419 126.76880199 339.23248291 122.45205688 C340.88345159 120.80351059 342.5192648 119.14198115 344.15185547 117.4753418 C347.87349898 113.86066197 350.27688595 113.06181033 355.375 112.875 C361.56074166 112.97132968 364.78760901 114.33137123 369.3359375 118.44140625 C371.55218661 120.75263746 373.6506924 123.11523531 375.65824127 125.60951996 C377.22799139 127.41222525 378.84669969 128.87640126 380.67907715 130.40783691 C386.51269934 135.44904417 391.8870309 140.95114414 397.32226562 146.41210938 C398.52204887 147.61381507 399.72206242 148.81529087 400.92228699 150.01655579 C403.49310583 152.59052002 406.0623666 155.16602565 408.63041687 157.74275208 C412.69667735 161.82260845 416.76681504 165.89858222 420.83752441 169.97399902 C430.21180296 179.3602876 439.58104838 188.75159492 448.95024872 198.14295197 C457.541961 206.75487815 466.13474807 215.3657247 474.73160124 223.9725194 C478.77259248 228.01847315 482.81113745 232.06684779 486.84778595 236.11713409 C489.364974 238.64181569 491.8842629 241.16439302 494.40410805 243.68642235 C495.56591329 244.85008919 496.72685907 246.01461489 497.88684654 247.18009377 C503.1951806 252.51275072 508.51458095 257.75368394 514.23538971 262.64873505 C518.66047005 266.57774736 522.77371768 270.84095125 526.9453125 275.03515625 C527.99731397 276.08908093 529.04954633 277.14277518 530.10198975 278.19625854 C532.35359712 280.45100764 534.6036462 282.7072959 536.85247803 284.96481323 C540.41465463 288.5406051 543.98072542 292.11249662 547.54736328 295.68383789 C555.7605675 303.90904315 563.96873276 312.13927088 572.17684937 320.36955261 C579.70485435 327.91778166 587.23394025 335.46492426 594.76709557 343.00801373 C598.3063172 346.5521921 601.84309227 350.09878794 605.37796021 353.64730835 C607.58375909 355.86061063 609.79166748 358.07179953 612.0001297 360.282444 C613.01680642 361.30097935 614.03262525 362.32037194 615.04747772 363.34072495 C620.03528601 368.35469487 625.06005509 373.23545579 630.42778015 377.84112549 C633.41593459 380.45892903 636.20282739 383.26717806 638.99804688 386.08789062 C639.93149681 387.02353096 639.93149681 387.02353096 640.88380432 387.97807312 C642.22001378 389.31805593 643.55506811 390.65919146 644.88905334 392.00138855 C647.00658088 394.13181126 649.1273315 396.25897922 651.24890137 398.38537598 C656.5146852 403.66444934 661.77498392 408.94897737 667.03546143 414.2333374 C671.49155061 418.70923302 675.94973385 423.18302329 680.41065979 427.65409851 C682.48870342 429.73857178 684.56368535 431.82605921 686.6385498 433.91369629 C694.94446177 442.27717345 694.94446177 442.27717345 703.7233429 450.13693237 C706.27152897 452.30774618 708.58624581 454.68035342 710.9375 457.0625 C711.82824219 457.96226562 712.71898437 458.86203125 713.63671875 459.7890625 C714.49910156 460.66304687 715.36148437 461.53703125 716.25 462.4375 C717.91582172 464.10501894 719.58265201 465.77150839 721.25 467.4375 C722.48959093 468.67699436 723.7291288 469.91654177 724.96862793 471.15612793 C725.66665024 471.85415024 726.36467255 472.55217255 727.08384705 473.27134705 C751.56635539 497.75385539 776.04886373 522.23636373 800.53137207 546.71887207 C801.17601913 547.36319183 801.8206662 548.0075116 802.48484802 548.6713562 C803.58829389 549.77542208 804.69058888 550.88064078 805.79115295 551.98757935 C808.15336155 554.36201734 810.55521932 556.60140744 813.125 558.75 C815.88973423 561.13749012 818.33025488 563.58568443 820.6875 566.375 C823.89523268 570.16262028 827.43759209 573.37306408 831.17578125 576.62890625 C833.66345646 578.79800912 836.01321816 581.008994 838.25 583.4375 C839.013125 584.241875 839.77625 585.04625 840.5625 585.875 C843.24704836 591.54237988 843.86620217 597.36900142 842.25 603.4375 C840.06979863 606.52241815 837.50044058 609.1675002 834.83889771 611.84124756 C833.04868174 613.63975013 831.28112103 615.45914592 829.51342773 617.27978516 C825.9667268 620.91938201 822.39020439 624.52805802 818.80151367 628.1262207 C816.54990509 630.38764984 814.30918853 632.65953613 812.06835938 634.93164062 C810.62565791 636.38086358 809.18232101 637.8294543 807.73828125 639.27734375 C807.07564774 639.95232407 806.41301422 640.62730438 805.7303009 641.32273865 C800.75589436 646.27349326 796.17014391 649.83954962 788.875 650 C788.00101563 650.04253906 787.12703125 650.08507812 786.2265625 650.12890625 C776.42934376 647.85317434 767.98643717 636.4393977 761.1105957 629.52514648 C759.68940493 628.10339093 758.26777235 626.68207689 756.84573364 625.26116943 C753.00059478 621.41660272 749.16164064 617.56591411 745.32378793 613.7140758 C741.30052599 609.67827203 737.27156191 605.6481688 733.24320984 601.6174469 C725.61681458 593.9848426 717.99552871 586.34715766 710.37608069 578.70761877 C701.71922004 570.02842399 693.05670121 561.35488603 684.39368689 552.6818341 C669.58643235 537.85722462 654.78341895 523.02839128 639.98512268 508.19483948 C639.36050099 507.5687386 638.7358793 506.94263772 638.09232968 506.29756409 C636.94592442 505.14842036 635.79954888 503.99924697 634.65321141 502.85003561 C633.65140305 501.84580498 632.64941528 500.84175327 631.64721447 499.83791429 C630.28313032 498.47070619 628.92107466 497.10147518 627.55907059 495.7321949 C625.8174935 494.00146043 624.06754511 492.30873892 622.25267029 490.65672302 C611.12361199 480.44161542 600.46532085 469.76871783 589.80927968 459.06524205 C587.2140907 456.45990069 584.61550905 453.85794778 582.01719666 451.25572205 C575.4459459 444.67348996 568.87900243 438.08696855 562.3125 431.5 C555.1940894 424.35946258 548.07487712 417.21973386 540.95078367 410.08486551 C537.87568949 407.00482986 534.80303868 403.92238464 531.73232758 400.83797944 C530.28224861 399.3822057 528.83100344 397.92760646 527.37924194 396.47351074 C525.62008634 394.71151245 523.86270509 392.94773989 522.1075592 391.18174744 C517.90770162 386.98151445 513.62817147 382.96238746 509.12661457 379.08826923 C506.07522891 376.40410934 503.22239914 373.53300605 500.36254883 370.64770508 C499.72567642 370.00937241 499.08880402 369.37103973 498.43263245 368.71336365 C497.06531372 367.34227122 495.69915012 365.97002602 494.33405495 364.59671974 C492.17113632 362.4209226 490.00500854 360.24836554 487.83805847 358.07658386 C483.24337742 353.4705368 478.65265535 348.86055658 474.0625 344.25 C468.72979572 338.89365353 463.39545882 333.5389542 458.05689049 328.18845177 C455.92720559 326.05230474 453.80056386 323.91315975 451.67402649 321.77388 C450.36592199 320.46214237 449.05767654 319.15054527 447.74926758 317.83911133 C447.16266357 317.247341 446.57605957 316.65557068 445.97167969 316.04586792 C442.87211693 312.94590835 439.68574587 310.16805292 436.25 307.4375 C434.56216717 305.79227178 432.89551007 304.12505805 431.25 302.4375 C430.09578804 301.27995712 430.09578804 301.27995712 428.91825867 300.09902954 C428.11854141 299.29629608 427.31882416 298.49356262 426.49487305 297.66650391 C421.95517581 293.11078882 417.41326135 288.55729563 412.86972332 284.00541115 C410.13162207 281.26209546 407.39446426 278.51785193 404.65942383 275.77148438 C401.99747534 273.09858928 399.3330181 270.42821792 396.66687965 267.75950241 C395.65943211 266.75022518 394.65285612 265.7400771 393.64722252 264.72899246 C388.56180677 259.61709834 383.44500086 254.62562464 377.970047 249.93170166 C375.57278971 247.84920867 373.33118133 245.63105752 371.09375 243.37890625 C369.77890625 242.05922852 369.77890625 242.05922852 368.4375 240.71289062 C367.550625 239.81763672 366.66375 238.92238281 365.75 238 C364.8321875 237.07767578 363.914375 236.15535156 362.96875 235.20507812 C360.72684945 232.95150101 358.487334 230.69560925 356.25 228.4375 C349.32915635 234.10757381 343.09367373 240.44849967 336.78125 246.7734375 C335.57505614 247.97895638 334.36871397 249.1843269 333.16223145 250.38955688 C330.64249675 252.90782321 328.12456406 255.42787372 325.60791016 257.94921875 C322.40056125 261.16225823 319.18875121 264.37079471 315.97556305 267.57799339 C313.48572923 270.06419306 310.99830749 272.55279508 308.51158142 275.04210281 C307.32910814 276.2252378 306.14590651 277.40764535 304.96192932 278.58927536 C297.67693234 285.80744743 297.67693234 285.80744743 290.79101562 293.40087891 C286.16111187 298.81590896 281.03411195 303.76336994 275.98248291 308.78018188 C274.08728107 310.66246176 272.19535947 312.54798618 270.30419922 314.43432617 C265.60946322 319.11578905 260.90926516 323.79175545 256.20922852 328.46789551 C252.2265437 332.43075528 248.2459784 336.39572178 244.26812744 340.36343384 C242.41632966 342.20881359 240.56151551 344.05112294 238.70654297 345.89331055 C233.61026884 350.96764113 228.6122205 356.03991135 223.94406128 361.51635742 C220.35381112 365.58786447 216.44602688 369.36220667 212.59765625 373.1875 C211.69752304 374.08621826 210.79738983 374.98493652 209.86997986 375.91088867 C207.50288737 378.27336575 205.13365361 380.63365112 202.76330566 382.99285889 C200.33449258 385.41135181 197.90858897 387.83275946 195.48242188 390.25390625 C190.74092631 394.98442954 185.99658102 399.71207973 181.25 404.4375 C182.8012408 408.14367366 185.06243707 410.49177517 187.89575195 413.31030273 C188.60103027 414.01601913 188.60103027 414.01601913 189.32055664 414.73599243 C190.87176999 416.28581587 192.42994505 417.82843522 193.98828125 419.37109375 C195.07247396 420.45155221 196.15622291 421.53245613 197.23954773 422.61378479 C200.09210996 425.45871887 202.95062008 428.29760274 205.8104248 431.13525391 C208.70726791 434.01171234 211.59853549 436.89376238 214.49023438 439.77539062 C219.58969083 444.8557212 224.69403163 449.93109851 229.80195618 455.00291443 C230.60981064 455.80632767 231.4176651 456.60974091 232.25 457.4375 C232.99319992 458.15942032 233.73639984 458.88134064 234.50212097 459.62513733 C236.86148177 462.03986453 239.10539077 464.50492143 241.34657288 467.02796936 C246.5947018 472.88898196 252.13003025 478.44358866 257.70483398 483.98999023 C258.82627932 485.10951136 259.94749347 486.2292641 261.0684967 487.34922791 C263.46181676 489.73941306 265.85667424 492.12804265 268.25277519 494.51543999 C272.04159029 498.29063027 275.82649618 502.06972395 279.6108551 505.84938049 C287.63342677 513.86090495 295.66025442 521.86815905 303.6875 529.875 C312.37981919 538.54527232 321.07138205 547.21629537 329.75809914 555.89218098 C333.52111634 559.6502162 337.28655764 563.40580042 341.0538739 567.15952575 C343.39036489 569.48856997 345.72479346 571.8196729 348.05866051 574.15134621 C349.14219563 575.23300626 350.22659635 576.3138 351.31191635 577.39366913 C352.79097907 578.865535 354.26694255 580.34044068 355.74217224 581.81614685 C356.56931449 582.64106849 357.39645674 583.46599012 358.2486639 584.31590939 C361.90998274 588.19722631 362.67782147 590.74295249 362.9375 596 C363.02386719 597.15628906 363.11023438 598.31257812 363.19921875 599.50390625 C362.46175452 605.50754247 357.32451933 609.38265216 353.25 613.4375 C352.0918778 614.61272354 350.93461925 615.78879857 349.77807617 616.96557617 C345.87684297 620.91877353 341.93981594 624.8353177 338 628.75 C336.63778509 630.1071853 335.27580438 631.46460571 333.9140625 632.82226562 C331.42038549 635.30784875 328.92538832 637.79208896 326.42871094 640.2746582 C323.69757521 642.99073665 320.97222016 645.71248686 318.25 648.4375 C316.27157327 650.41592673 312.94316222 649.92058615 310.3125 650.0625 C309.04535156 650.15789063 307.77820313 650.25328125 306.47265625 650.3515625 C302.42738829 649.97878238 300.48708102 648.17783514 297.56216145 645.44893265 C296.68234564 644.63062171 295.80252984 643.81231076 294.89605296 642.96920252 C290.89333522 639.13946414 286.9427312 635.26485972 283.03276062 631.34051514 C282.1620311 630.47064004 281.29130158 629.60076495 280.39418632 628.70453 C278.00748662 626.31918053 275.62302252 623.93163753 273.2395252 621.54309082 C270.65722346 618.95643448 268.07199493 616.37270604 265.48713684 613.78860474 C261.01778566 609.31977574 256.55025673 604.84913185 252.0839901 600.37722015 C245.6212284 593.90629587 239.15567345 587.43816835 232.68945573 580.97069779 C222.18904177 570.46809958 211.69085856 559.96327453 201.1940918 549.45703125 C191.01525082 539.26901045 180.83536002 529.08204052 170.65405273 518.89648438 C170.02626392 518.26843284 169.39847511 517.6403813 168.7516624 516.9932979 C165.60121864 513.84154878 162.45075408 510.68982046 159.30027902 507.53810263 C137.60288763 485.83210986 115.90770513 464.12391115 94.21481323 442.41342163 C93.30152042 441.49938922 92.3882276 440.58535681 91.44725925 439.64362645 C89.76398877 437.95897966 88.08073005 436.27432112 86.39748591 434.58964801 C82.68242312 430.87149863 78.96697614 427.15373666 75.25 423.4375 C57.25 405.4375 57.25 405.4375 55.00488281 403.16015625 C52.38278542 400.5687321 49.70522749 398.05721005 46.9989624 395.55480957 C40.37778377 389.42530362 33.92310551 383.16454596 27.609375 376.71875 C26.89970581 375.99647217 26.19003662 375.27419434 25.4588623 374.5300293 C22.5557039 371.57297746 19.65508039 368.61382779 16.77197266 365.63720703 C14.62478879 363.42394144 12.46244064 361.22651215 10.296875 359.03125 C9.6458783 358.35130981 8.99488159 357.67136963 8.32415771 356.9708252 C7.41104828 356.05230774 7.41104828 356.05230774 6.47949219 355.11523438 C5.68584259 354.30040588 5.68584259 354.30040588 4.87615967 353.46911621 C3.2779775 352.21982885 3.2779775 352.21982885 1.19107056 352.64950562 C-1.67219915 353.81187472 -3.35803297 355.69274795 -5.5234375 357.8828125 C-6.8846875 359.25179687 -6.8846875 359.25179687 -8.2734375 360.6484375 C-8.97678223 361.36725098 -8.97678223 361.36725098 -9.69433594 362.10058594 C-11.10639092 363.54348444 -12.52853735 364.9757348 -13.953125 366.40625 C-18.23935533 370.74104952 -22.4652564 375.07597675 -26.32275391 379.80029297 C-28.35029725 382.12610645 -30.56323507 384.262874 -32.75 386.4375 C-33.86539058 387.55034498 -34.98061915 388.66335234 -36.09571838 389.77648926 C-37.38224046 391.0599898 -38.66877591 392.34347693 -39.95532227 393.62695312 C-47.14154888 400.79683692 -54.32522463 407.96927099 -61.5074625 415.14315033 C-65.84830001 419.47875754 -70.1900721 423.81342043 -74.53393555 428.14599609 C-78.74344978 432.34464464 -82.95051579 436.545732 -87.15589714 440.7485199 C-88.75658064 442.34735802 -90.35814298 443.9453168 -91.96060371 445.54237366 C-94.20076344 447.77527256 -96.43777222 450.01128334 -98.67407227 452.24804688 C-99.33443985 452.90481918 -99.99480743 453.56159149 -100.67518616 454.23826599 C-103.92696871 457.49734661 -106.92512435 460.79168286 -109.75 464.4375 C-110.82303145 465.4104819 -111.92589191 466.35210673 -113.0625 467.25 C-115.60976597 469.35946783 -117.79046413 471.5448224 -119.92138672 474.0715332 C-123.9711957 478.75750397 -128.30342897 483.11675733 -132.6953125 487.48046875 C-133.56291199 488.34660797 -134.43051147 489.21274719 -135.32440186 490.10513306 C-137.1964238 491.9733685 -139.06931413 493.84067994 -140.94378662 495.70645142 C-143.91470542 498.66372291 -146.88169453 501.62491671 -149.84814453 504.58666992 C-156.68004806 511.40658721 -163.51698019 518.22145597 -170.35397339 525.03627014 C-176.62576813 531.28782404 -182.89646512 537.54046895 -189.16310692 543.79718876 C-192.10515395 546.73428856 -195.04961272 549.66894133 -197.99601746 552.60166931 C-200.26757991 554.86394662 -202.53585457 557.12951702 -204.8046875 559.39453125 C-205.61008972 560.19476715 -206.41549194 560.99500305 -207.24530029 561.81948853 C-211.35383481 565.92764032 -215.275343 570.12257178 -219.06655693 574.52429771 C-221.87553153 577.71664601 -224.87210745 580.71532525 -227.87524414 583.72387695 C-228.54937851 584.40297623 -229.22351288 585.0820755 -229.91807556 585.78175354 C-232.12103425 587.99916969 -234.3277365 590.21280654 -236.53515625 592.42578125 C-237.2935272 593.18697958 -238.05189816 593.94817791 -238.83325005 594.73244286 C-242.83803677 598.75214695 -246.84563363 602.76902323 -250.85571289 606.78344727 C-254.99051826 610.92375986 -259.11594755 615.07328588 -263.23929691 619.22500324 C-266.42130501 622.42563386 -269.61000011 625.61953799 -272.80056572 628.81163597 C-274.32485534 630.33894801 -275.84664857 631.86875581 -277.36586189 633.40111732 C-279.48826875 635.54059337 -281.61995425 637.67038857 -283.75415039 639.7980957 C-284.37613312 640.42929321 -284.99811584 641.06049072 -285.63894653 641.71081543 C-289.58739956 645.6218154 -293.39660117 648.85874081 -299.05859375 649.8359375 C-299.76113281 649.82820312 -300.46367187 649.82046875 -301.1875 649.8125 C-301.88746094 649.82023438 -302.58742188 649.82796875 -303.30859375 649.8359375 C-311.43970326 648.50894043 -315.8522479 643.86729613 -321.375 638.125 C-322.11234375 637.37798828 -322.8496875 636.63097656 -323.609375 635.86132812 C-326.70229095 632.70466928 -329.72886591 629.53871297 -332.5234375 626.11328125 C-334.48104028 623.76072353 -336.39587896 621.87395441 -338.75 619.9375 C-342.19555503 617.00263699 -344.91720935 613.95934783 -347.75 610.4375 C-348.636875 609.6125 -349.52375 608.7875 -350.4375 607.9375 C-354.26748905 603.7969713 -354.97286962 600.07415051 -354.8125 594.5625 C-353.10826816 582.99646157 -338.29614665 572.92058775 -330.28369141 564.99169922 C-328.36408658 563.09034433 -326.44762101 561.18586336 -324.53125 559.28125 C-323.95499878 558.71329712 -323.37874756 558.14534424 -322.78503418 557.56018066 C-319.94063197 554.73263234 -317.22246897 551.85817414 -314.61914062 548.80664062 C-309.96781445 543.4307247 -304.89426976 538.47055534 -299.85287476 533.46520996 C-298.02487821 531.65014434 -296.20017044 529.83182699 -294.3762207 528.01269531 C-289.84843857 523.49818084 -285.31519193 518.98916663 -280.78210449 514.47998047 C-276.94033661 510.65804384 -273.10069298 506.83399624 -269.26376343 503.00720215 C-267.47844455 501.22829745 -265.69010861 499.45246604 -263.90161133 497.67675781 C-258.97199078 492.76912989 -254.15051428 487.83775375 -249.63183594 482.54418945 C-245.62948839 478.06361642 -241.30059374 473.88186637 -237.03807068 469.65040588 C-235.24367665 467.86894752 -233.45257591 466.08423362 -231.66223145 464.29870605 C-227.21792631 459.8676657 -222.76815537 455.4421276 -218.31854248 451.01641846 C-214.54723298 447.26494349 -210.77805022 443.51135531 -207.01158142 439.75502014 C-205.25950204 438.0093529 -203.50440523 436.26676048 -201.74914551 434.52429199 C-200.66008747 433.43887134 -199.57117232 432.3533073 -198.48242188 431.26757812 C-198.0042955 430.79461807 -197.52616913 430.32165802 -197.03355408 429.83436584 C-194.40152179 427.20273492 -191.91257213 424.49485149 -189.48522949 421.67272949 C-185.29393446 416.84100687 -180.788583 412.351233 -176.25390625 407.84375 C-174.83231431 406.42439956 -173.4107225 405.00504899 -171.98913574 403.58569336 C-170.47538787 402.07529531 -168.96039865 400.56615277 -167.44503784 399.05737305 C-164.27249537 395.89846582 -161.10387154 392.73564687 -157.93579102 389.57226562 C-150.63945331 382.28791972 -143.33808929 375.00861874 -136.03666687 367.72937012 C-129.33939438 361.05233216 -122.64321538 354.37420699 -115.95109081 347.69200897 C-112.8083332 344.55420216 -109.66316167 341.4188422 -106.51605225 338.28540039 C-105.02725747 336.80230062 -103.53963722 335.31803444 -102.05252075 333.83325195 C-100.24875851 332.03233381 -98.44322054 330.23319149 -96.63546753 328.4362793 C-92.39468394 324.19586604 -88.331221 319.8807458 -84.42065811 315.33498192 C-81.58885826 312.11871105 -78.5548113 309.11147447 -75.51708984 306.09106445 C-74.83159561 305.40542419 -74.14610138 304.71978394 -73.43983459 304.0133667 C-71.19923406 301.7734563 -68.95512332 299.53709901 -66.7109375 297.30078125 C-65.14086331 295.73257544 -63.5710122 294.16414625 -62.00137329 292.59550476 C-57.88575787 288.48368978 -53.76714981 284.37488536 -49.64788818 280.26672363 C-45.45876062 276.08783199 -41.2724642 271.90610634 -37.0859375 267.72460938 C-30.32588912 260.97333041 -23.56412288 254.22377782 -16.8000946 247.47648621 C-16.20593246 246.88376923 -15.61177032 246.29105225 -14.99960327 245.68037415 C-14.44455486 245.12755075 -13.88950645 244.57472736 -13.3176384 244.00515175 C-12.30055526 242.98805995 -11.28736538 241.96705422 -10.27882767 240.94148827 C-6.3778437 236.98202973 -3.6246988 235.15245664 2 234.9375 C10.22461085 235.11865883 14.98794605 240.9705948 20.37712383 246.56369209 C22.16850116 248.35596061 24.01857972 250.00177238 25.94648743 251.64498901 C30.35487542 255.47693069 34.48746797 259.54116164 38.60620117 263.68017578 C39.39913071 264.47295929 40.19206024 265.2657428 41.00901794 266.08255005 C43.60604823 268.68027188 46.199526 271.28150946 48.79296875 273.8828125 C50.60779762 275.69950911 52.42284937 277.51598308 54.2381134 279.33224487 C58.51553422 283.61308232 62.79072439 287.89613553 67.06481582 292.18029678 C71.91476298 297.04142436 76.76754948 301.8997132 81.62058294 306.75775933 C89.92024001 315.06608307 98.21780329 323.37649351 106.51293945 331.68933105 C107.8448262 333.0240266 109.17733796 334.35809891 110.5106411 335.69137955 C111.60259452 336.78757781 112.69019372 337.88814905 113.77135658 338.9949913 C116.12180903 341.3937141 118.11197428 343.15904508 121.25 344.4375 C122.77419005 342.94091097 124.29414831 341.44001195 125.8125 339.9375 C127.08287109 338.68453125 127.08287109 338.68453125 128.37890625 337.40625 C130.47486367 335.28728416 132.4306214 333.08542142 134.3671875 330.8203125 C138.46218502 326.1244933 142.8276578 321.73350335 147.24609375 317.34375 C148.49641136 316.09555481 148.49641136 316.09555481 149.77198792 314.82214355 C152.40813262 312.19155065 155.04775105 309.56447559 157.6875 306.9375 C159.48655979 305.14346145 161.2853902 303.34919285 163.08398438 301.5546875 C167.47000812 297.17962875 171.85888142 292.80744488 176.25 288.4375 C174.66428364 284.58744187 172.21162538 282.15163688 169.28466797 279.22924805 C168.52809654 278.4698291 168.52809654 278.4698291 167.75624084 277.69506836 C166.08973389 276.02486167 164.41614037 274.36196017 162.7421875 272.69921875 C161.57557283 271.53379734 160.40932885 270.36800476 159.24343872 269.20185852 C156.79688392 266.75686766 154.34700887 264.31527031 151.89453125 261.8762207 C148.76938494 258.76797912 145.65077563 255.65328164 142.53445244 252.53619671 C140.12392356 250.12594157 137.71078265 247.71831579 135.29678726 245.31153297 C134.14729358 244.16519694 132.99838298 243.01827589 131.85009384 241.87073326 C126.45033141 236.47831623 121.03910117 231.16951491 115.23806763 226.204422 C110.94099875 222.3853439 106.95143934 218.23800883 102.90625 214.15625 C101.92823581 213.17381622 100.94991749 212.19168512 99.97131348 211.20983887 C96.37501016 207.60030682 92.78423404 203.98529294 89.19329834 200.37042236 C86.14644421 197.3036925 83.09744874 194.23912086 80.04570007 191.17726135 C78.63241371 189.75758843 77.22222889 188.33483001 75.81213379 186.9119873 C71.36015072 182.44318805 66.852202 178.13544165 62.06530762 174.0279541 C59.19372258 171.51205864 56.52092759 168.81330817 53.84375 166.09375 C52.99024963 165.2345697 52.99024963 165.2345697 52.11950684 164.35803223 C49.72567314 161.94810718 47.33795757 159.53215522 44.94970703 157.11669922 C36.37061315 148.43821472 36.37061315 148.43821472 27.31054688 140.27099609 C22.41176692 135.91201061 17.86640244 131.15445365 13.25 126.5 C12.17862113 125.42359346 11.10700818 124.34741986 10.03515625 123.27148438 C7.43740362 120.66283255 4.84282038 118.05105529 2.25 115.4375 C-1.18095546 116.91744888 -3.40962605 118.84909813 -6.0402832 121.48486328 C-6.87827957 122.31978302 -7.71627594 123.15470276 -8.57966614 124.0149231 C-9.47763412 124.9200766 -10.37560211 125.8252301 -11.30078125 126.7578125 C-12.23294968 127.69043915 -13.1651181 128.6230658 -14.12553406 129.58395386 C-16.09974456 131.55972735 -18.07055661 133.53880844 -20.03881836 135.52050781 C-22.54173105 138.04030475 -25.05106912 140.55357562 -27.56281757 143.06456184 C-29.50984188 145.01186052 -31.45423009 146.961774 -33.39778709 148.91253281 C-34.76538206 150.28479257 -36.13441928 151.65561452 -37.50349426 153.02639771 C-41.13916354 156.68943728 -44.7277573 160.34629285 -48.07885742 164.27294922 C-52.65300701 169.58856191 -57.67398012 174.4722065 -62.64712524 179.40979004 C-64.47512179 181.22485566 -66.29982956 183.04317301 -68.1237793 184.86230469 C-72.65156143 189.37681916 -77.18480807 193.88583337 -81.71789551 198.39501953 C-85.55966339 202.21695616 -89.39930702 206.04100376 -93.23623657 209.86779785 C-95.02155545 211.64670255 -96.80989139 213.42253396 -98.59838867 215.19824219 C-103.58068124 220.15831557 -108.4627272 225.14084258 -113.02929688 230.49194336 C-116.68774256 234.62845779 -120.67218688 238.45906285 -124.59375 242.34375 C-126.0119165 243.75612932 -127.43008007 245.16851161 -128.84807587 246.58106232 C-131.81066445 249.53062024 -134.77784021 252.47556312 -137.74420166 255.42132568 C-140.19581031 257.85627106 -142.64637331 260.29224816 -145.09436035 262.73083496 C-146.92068429 264.54970613 -148.74925361 266.36632652 -150.58044434 268.18029785 C-154.20100514 271.78658323 -157.7667565 275.386147 -161.0859375 279.2734375 C-165.59940972 284.52512657 -170.55097361 289.34942635 -175.46192932 294.22459412 C-177.25632335 296.00605248 -179.04742409 297.79076638 -180.83776855 299.57629395 C-185.28207369 304.0073343 -189.73184463 308.4328724 -194.18145752 312.85858154 C-197.95276702 316.61005651 -201.72194978 320.36364469 -205.48841858 324.11997986 C-207.24049796 325.8656471 -208.99559477 327.60823952 -210.75085449 329.35070801 C-211.83991253 330.43612866 -212.92882768 331.5216927 -214.01757812 332.60742188 C-214.4957045 333.08038193 -214.97383087 333.55334198 -215.46644592 334.04063416 C-218.10785371 336.68163914 -220.60600927 339.40001612 -223.04345703 342.23095703 C-227.08456285 346.889778 -231.41396503 351.22685124 -235.78710938 355.57226562 C-236.66446243 356.44815842 -237.54181549 357.32405121 -238.445755 358.22648621 C-240.33905792 360.11600225 -242.2332297 362.00459448 -244.12898254 363.89164734 C-247.13350523 366.88252485 -250.13410018 369.8773228 -253.13415527 372.87268066 C-260.04346452 379.77000269 -266.95780196 386.66227682 -273.87220001 393.55449677 C-280.21490768 399.8769647 -286.55651835 406.20052299 -292.89407396 412.5281558 C-295.86957277 415.49870675 -298.8474837 418.4668107 -301.82733917 421.43299103 C-304.12452811 423.72089617 -306.41843048 426.01209313 -308.71289062 428.30273438 C-309.52764359 429.11232101 -310.34239655 429.92190765 -311.18183899 430.75602722 C-315.36655803 434.94036074 -319.37235569 439.21002869 -323.23316193 443.69481659 C-325.13602686 445.88100325 -327.14039336 447.94112199 -329.19726562 449.98242188 C-329.9949939 450.77684692 -330.79272217 451.57127197 -331.61462402 452.38977051 C-332.4533606 453.22020874 -333.29209717 454.05064697 -334.15625 454.90625 C-335.03978149 455.78599487 -335.92331299 456.66573975 -336.83361816 457.57214355 C-340.1097232 460.83406945 -343.3903498 464.09142564 -346.67132568 467.34844971 C-349.89830538 470.5523726 -353.1213808 473.76019116 -356.34375 476.96875 C-357.18248657 477.79918823 -358.02122314 478.62962646 -358.88537598 479.48522949 C-362.45472988 483.03980346 -365.95183226 486.60294235 -369.23632812 490.42382812 C-373.37349761 495.23415 -377.86909803 499.66254569 -382.375 504.125 C-383.28072754 505.02694092 -384.18645508 505.92888184 -385.11962891 506.8581543 C-388.47921306 510.20355444 -391.84331262 513.54438392 -395.20776367 516.8848877 C-398.51634351 520.170418 -401.82102481 523.45983791 -405.125 526.75 C-405.98561035 527.60231201 -406.8462207 528.45462402 -407.73291016 529.33276367 C-411.33469881 532.92000323 -414.87186917 536.50916452 -418.18164062 540.36914062 C-422.2142828 545.05978016 -426.58936871 549.38980688 -430.98036194 553.74302673 C-432.50593977 555.25562332 -434.02818086 556.77151202 -435.54968262 558.28820801 C-439.32616982 562.05145801 -443.10813511 565.80918668 -446.88995361 569.56707764 C-450.09759868 572.75485668 -453.30309295 575.94477042 -456.50587463 579.13743591 C-457.99203689 580.61720556 -459.48121996 582.09388565 -460.97058105 583.57043457 C-465.45613188 588.03984253 -469.78718328 592.55230655 -473.90859985 597.35787964 C-477.90448402 601.8707076 -482.19384072 606.11225736 -486.43359375 610.39453125 C-486.93571947 610.90198065 -487.43784519 611.40943005 -487.95518684 611.9322567 C-490.60668706 614.61025969 -493.26169871 617.28472951 -495.91918945 619.95678711 C-498.10335367 622.15434309 -500.27999274 624.35896439 -502.45043945 626.57006836 C-505.09279748 629.26188094 -507.74734948 631.94108004 -510.41099739 634.61182213 C-511.41630103 635.62380278 -512.41737494 636.64000506 -513.413908 637.66062355 C-524.30441078 648.79949044 -524.30441078 648.79949044 -533.32992554 649.69287109 C-540.57210965 649.69096519 -544.29695633 647.05244617 -549.348526 642.07453918 C-550.20417648 641.17982407 -551.05982697 640.28510895 -551.94140625 639.36328125 C-553.30929543 637.9883979 -553.30929543 637.9883979 -554.70481873 636.58573914 C-556.62384113 634.65445322 -558.52528454 632.70794665 -560.41430664 630.74731445 C-562.82804683 628.24277462 -565.27149287 625.77005885 -567.72731113 623.30683613 C-570.08156575 620.94156805 -572.41760135 618.55878803 -574.75390625 616.17578125 C-575.62777481 615.29118729 -576.50164337 614.40659332 -577.4019928 613.49519348 C-578.20720871 612.65800278 -579.01242462 611.82081207 -579.84204102 610.95825195 C-580.55054703 610.22846634 -581.25905304 609.49868073 -581.98902893 608.7467804 C-585.91901376 603.59312564 -586.20673636 598.38214934 -585.46875 592.16796875 C-584.21434675 587.40259987 -581.26524863 584.73662123 -577.75 581.4375 C-576.08066454 579.77350641 -574.41412408 578.10670538 -572.75 576.4375 C-571.96625 575.674375 -571.1825 574.91125 -570.375 574.125 C-568.36135801 572.06341416 -566.48905132 569.99216213 -564.61914062 567.80664062 C-560.67662587 563.28565769 -556.48230468 559.06020874 -552.21875 554.84375 C-551.02662903 553.65730896 -551.02662903 553.65730896 -549.8104248 552.44689941 C-546.44464452 549.09731427 -543.07288952 545.7537673 -539.70166016 542.40966797 C-537.22609773 539.95229061 -534.75361917 537.49183942 -532.28125 535.03125 C-531.53000854 534.28830688 -530.77876709 533.54536377 -530.00476074 532.77990723 C-526.7146331 529.50492359 -523.5108637 526.21484097 -520.49609375 522.68359375 C-515.94954067 517.40894613 -510.97675045 512.55309567 -506.03807068 507.65040588 C-504.24367665 505.86894752 -502.45257591 504.08423362 -500.66223145 502.29870605 C-496.21792631 497.8676657 -491.76815537 493.4421276 -487.31854248 489.01641846 C-483.54723298 485.26494349 -479.77805022 481.51135531 -476.01158142 477.75502014 C-474.25950204 476.0093529 -472.50440523 474.26676048 -470.74914551 472.52429199 C-465.81555504 467.61311611 -460.98805174 462.67469216 -456.46496582 457.37731934 C-452.87711964 453.31906155 -448.97218416 449.56008812 -445.125 445.75 C-444.21927246 444.84805908 -443.31354492 443.94611816 -442.38037109 443.0168457 C-439.02078694 439.67144556 -435.65668738 436.33061608 -432.29223633 432.9901123 C-428.98365649 429.704582 -425.67897519 426.41516209 -422.375 423.125 C-421.51438965 422.27268799 -420.6537793 421.42037598 -419.76708984 420.54223633 C-415.51481189 416.30713506 -411.44933639 412.00052748 -407.53808594 407.45043945 C-404.05368413 403.52787078 -400.28996928 399.8771027 -396.5625 396.1875 C-395.27049683 394.90117676 -395.27049683 394.90117676 -393.95239258 393.58886719 C-390.29986017 389.95255061 -386.64136365 386.32225629 -382.98339844 382.69140625 C-380.29934844 380.02552403 -377.61836759 377.3565819 -374.9375 374.6875 C-374.12063721 373.87893555 -373.30377441 373.07037109 -372.4621582 372.23730469 C-368.28175277 368.07465504 -364.2929119 363.82987557 -360.44604492 359.35839844 C-357.54616893 356.07407077 -354.42946649 353.01416932 -351.3125 349.9375 C-350.28684937 348.9175293 -350.28684937 348.9175293 -349.24047852 347.87695312 C-346.35262227 345.00524857 -343.45876925 342.13961562 -340.56542969 339.2734375 C-338.43734275 337.16357213 -336.31237083 335.05060355 -334.1875 332.9375 C-333.54562744 332.30392578 -332.90375488 331.67035156 -332.24243164 331.01757812 C-329.16945785 327.96104164 -326.21223241 324.86176866 -323.38671875 321.57421875 C-319.20133403 316.72884683 -314.67224522 312.25339892 -310.125 307.75 C-308.76640869 306.39708862 -308.76640869 306.39708862 -307.38037109 305.0168457 C-304.02078694 301.67144556 -300.65668738 298.33061608 -297.29223633 294.9901123 C-293.98365649 291.704582 -290.67897519 288.41516209 -287.375 285.125 C-286.51438965 284.27268799 -285.6537793 283.42037598 -284.76708984 282.54223633 C-281.17890359 278.96854422 -277.6536903 275.39482785 -274.359375 271.546875 C-270.14509795 266.64526217 -265.5503028 262.12568562 -260.96405029 257.5763855 C-259.33766731 255.96296486 -257.71460304 254.34626729 -256.09228516 252.72875977 C-252.06536577 248.71508899 -248.03297337 244.70693165 -244.00073242 240.6986084 C-240.5817138 237.29944276 -237.16483601 233.89815133 -233.75067139 230.49411011 C-232.16478994 228.91462934 -230.57588904 227.33823203 -228.98681641 225.76196289 C-222.98558873 219.79091243 -222.98558873 219.79091243 -217.31835938 213.50585938 C-212.8438075 208.28077618 -207.91663771 203.49342099 -203.03807068 198.65040588 C-201.24367665 196.86894752 -199.45257591 195.08423362 -197.66223145 193.29870605 C-193.21792631 188.8676657 -188.76815537 184.4421276 -184.31854248 180.01641846 C-180.54723298 176.26494349 -176.77805022 172.51135531 -173.01158142 168.75502014 C-171.25950204 167.0093529 -169.50440523 165.26676048 -167.74914551 163.52429199 C-162.81555504 158.61311611 -157.98805174 153.67469216 -153.46496582 148.37731934 C-149.87711964 144.31906155 -145.97218416 140.56008812 -142.125 136.75 C-141.21927246 135.84805908 -140.31354492 134.94611816 -139.38037109 134.0168457 C-136.02078694 130.67144556 -132.65668738 127.33061608 -129.29223633 123.9901123 C-125.98365649 120.704582 -122.67897519 117.41516209 -119.375 114.125 C-118.08408447 112.84653198 -118.08408447 112.84653198 -116.76708984 111.54223633 C-113.24694803 108.03631381 -109.78085294 104.54023629 -106.56445312 100.75195312 C-101.4366952 94.78968499 -95.76015913 89.33839108 -90.18611145 83.79844666 C-88.05568874 81.68091912 -85.92852078 79.5601685 -83.80212402 77.43859863 C-78.52305066 72.1728148 -73.23852263 66.91251608 -67.9541626 61.65203857 C-63.47826698 57.19594939 -59.00447671 52.73776615 -54.53340149 48.27684021 C-52.44892822 46.19879658 -50.36144079 44.12381465 -48.27380371 42.0489502 C-39.95441528 33.76498304 -39.95441528 33.76498304 -32.11276245 25.03179932 C-28.35949664 20.64084394 -24.1429402 16.64578371 -20.0625 12.5625 C-19.11643728 11.60426457 -18.17047317 10.64593178 -17.22460938 9.6875 C-16.32162109 8.78257812 -15.41863281 7.87765625 -14.48828125 6.9453125 C-13.26685425 5.71772217 -13.26685425 5.71772217 -12.02075195 4.46533203 C-8.11655575 0.97879793 -5.20408326 0.11459769 0 0 Z " fill="#0B1829" transform="translate(653.75,153.5625)"/>
<path d="M0 0 C1.17949219 0.01804687 2.35898437 0.03609375 3.57421875 0.0546875 C4.92966797 0.08949219 4.92966797 0.08949219 6.3125 0.125 C6.3125 0.455 6.3125 0.785 6.3125 1.125 C5.20841797 1.14626953 5.20841797 1.14626953 4.08203125 1.16796875 C2.61830078 1.23951172 2.61830078 1.23951172 1.125 1.3125 C-0.31939453 1.36470703 -0.31939453 1.36470703 -1.79296875 1.41796875 C-5.64170902 2.3580794 -6.97174634 4.26669432 -9.6875 7.125 C-10.52966064 7.97239746 -11.37182129 8.81979492 -12.23950195 9.69287109 C-13.12597412 10.58570801 -14.01244629 11.47854492 -14.92578125 12.3984375 C-16.4340923 13.91413247 -17.9428905 15.42934063 -19.4519043 16.94433594 C-20.4795057 17.9769611 -21.50620714 19.01048268 -22.53198242 20.04492188 C-28.39998293 25.9609667 -34.31159971 31.74980558 -40.6875 37.125 C-42.02125273 38.27034513 -43.35459981 39.41616284 -44.6875 40.5625 C-46.1725 41.8309375 -46.1725 41.8309375 -47.6875 43.125 C-48.3475 42.795 -49.0075 42.465 -49.6875 42.125 C-18.46801758 10.90551758 -18.46801758 10.90551758 -16.48135376 8.92276001 C-15.37444721 7.81344309 -14.27190139 6.69973104 -13.17660522 5.57894897 C-8.76597401 1.0762991 -6.32862223 -0.12531925 0 0 Z " fill="#162132" transform="translate(1009.6875,266.875)"/>
<path d="M0 0 C0 3 0 3 -1.6796875 4.90234375 C-2.40414062 5.57394531 -3.12859375 6.24554688 -3.875 6.9375 C-6.79780735 9.57421991 -6.79780735 9.57421991 -8.86068726 12.85211182 C-10.27446815 15.5174408 -12.03443753 17.27400222 -14.17431641 19.40136719 C-15.03505768 20.2619574 -15.89579895 21.12254761 -16.78262329 22.00921631 C-17.71287323 22.92914368 -18.64312317 23.84907104 -19.6015625 24.796875 C-20.56321086 25.75479097 -21.52441694 26.71315114 -22.48519897 27.67193604 C-25.00923282 30.18835125 -27.53921591 32.69870107 -30.07049561 35.20782471 C-32.6547919 37.77162441 -35.23340199 40.34112918 -37.8125 42.91015625 C-42.86945697 47.94569457 -47.93272256 52.9748456 -53 58 C-53.66 57.34 -54.32 56.68 -55 56 C-54.53947739 55.541698 -54.07895477 55.083396 -53.60447693 54.61120605 C-48.78295793 49.8119252 -43.9650536 45.00903706 -39.14916992 40.20410156 C-37.35483496 38.41477465 -35.55960086 36.62634889 -33.76342773 34.83886719 C-31.17190627 32.25956649 -28.58370701 29.67697077 -25.99609375 27.09375 C-25.20101913 26.30383667 -24.40594452 25.51392334 -23.58677673 24.70007324 C-19.38971629 20.50342978 -15.35279697 16.23207318 -11.49536133 11.72021484 C-9.29619892 9.19037022 -6.9491214 6.85392796 -4.5625 4.5 C-3.26505859 3.21609375 -3.26505859 3.21609375 -1.94140625 1.90625 C-1.30074219 1.2771875 -0.66007812 0.648125 0 0 Z " fill="#202B3B" transform="translate(344,461)"/>
<path d="M0 0 C0.66 0.66 1.32 1.32 2 2 C-12.52 16.52 -27.04 31.04 -42 46 C-42.99 45.67 -43.98 45.34 -45 45 C-30.15 30.15 -15.3 15.3 0 0 Z " fill="#101C2E" transform="translate(633,405)"/>
<path d="M0 0 C0.99 0.33 1.98 0.66 3 1 C-2.47743215 6.50278744 -7.95878124 12.00165039 -13.44287109 17.49780273 C-15.30803396 19.3679943 -17.1722983 21.23908242 -19.03564453 23.11108398 C-21.7141119 25.8016808 -24.39579395 28.48903692 -27.078125 31.17578125 C-27.91055725 32.01337479 -28.7429895 32.85096832 -29.60064697 33.71394348 C-30.38115417 34.49452621 -31.16166138 35.27510895 -31.96582031 36.0793457 C-32.64976868 36.76551468 -33.33371704 37.45168365 -34.03839111 38.15864563 C-35.93377711 39.93783684 -37.88995843 41.4849987 -40 43 C-40.66 42.67 -41.32 42.34 -42 42 C-28.14 28.14 -14.28 14.28 0 0 Z " fill="#172334" transform="translate(598,203)"/>
<path d="M0 0 C0.66 0.66 1.32 1.32 2 2 C-8.33333333 12.33333333 -18.66666667 22.66666667 -29 33 C-29.77339973 33.78886848 -29.77339973 33.78886848 -30.56242371 34.59367371 C-32.25400245 36.24848095 -34.08534942 37.61352889 -36 39 C-36.66 38.67 -37.32 38.34 -38 38 C-25.46 25.46 -12.92 12.92 0 0 Z " fill="#131E30" transform="translate(934,336)"/>
<path d="M0 0 C0.66 0 1.32 0 2 0 C0.450168 3.70044944 -1.80394671 6.04581087 -4.63330078 8.86035156 C-5.10176422 9.32910706 -5.57022766 9.79786255 -6.05288696 10.28082275 C-7.59566695 11.82221432 -9.14539964 13.35640873 -10.6953125 14.890625 C-11.76906192 15.96064255 -12.84236933 17.03110381 -13.91525269 18.10198975 C-16.73520452 20.91431879 -19.56111154 23.72058889 -22.38830566 26.52563477 C-25.2742137 29.39105523 -28.15444257 32.26217168 -31.03515625 35.1328125 C-36.68456489 40.76079512 -42.34027825 46.38238884 -48 52 C-48.66 51.67 -49.32 51.34 -50 51 C-49.14888641 50.15221733 -49.14888641 50.15221733 -48.28057861 49.28730774 C-42.92262518 43.94942669 -37.56710853 38.60911805 -32.21428299 33.26609516 C-29.46254393 30.5195652 -26.70988636 27.77396937 -23.95507812 25.03051758 C-21.29446849 22.38080704 -18.63633932 19.72863101 -15.97988129 17.07475853 C-14.96811855 16.0648374 -13.95547893 15.05579394 -12.94193268 14.04766273 C-11.51785923 12.63089292 -10.09724241 11.21065126 -8.67675781 9.7902832 C-7.8684552 8.9842012 -7.06015259 8.1781192 -6.22735596 7.34761047 C-3.92405682 4.99842748 -3.92405682 4.99842748 -1.83270264 2.2006073 C-1.22791077 1.47440689 -0.6231189 0.74820648 0 0 Z " fill="#E6E7EA" transform="translate(624,535)"/>
<path d="M0 0 C0.66 0.66 1.32 1.32 2 2 C-8.89 12.89 -19.78 23.78 -31 35 C-31.99 34.67 -32.98 34.34 -34 34 C-22.78 22.78 -11.56 11.56 0 0 Z " fill="#121F30" transform="translate(335,707)"/>
<path d="M0 0 C0.495 1.485 0.495 1.485 1 3 C-13.52 17.52 -28.04 32.04 -43 47 C-43.66 46.67 -44.32 46.34 -45 46 C-44.49523132 45.49745193 -43.99046265 44.99490387 -43.47039795 44.47712708 C-38.7010862 39.72789812 -33.9342174 34.97623218 -29.17004013 30.2218523 C-26.72097274 27.77799124 -24.270989 25.3350641 -21.81884766 22.89428711 C-18.99622791 20.0846662 -16.17770681 17.27095363 -13.359375 14.45703125 C-12.48319519 13.58601273 -11.60701538 12.7149942 -10.70428467 11.81758118 C-9.88373596 10.997108 -9.06318726 10.17663483 -8.21777344 9.33129883 C-7.49829529 8.61404129 -6.77881714 7.89678375 -6.03753662 7.15779114 C-3.87933252 4.87221078 -1.93095609 2.479092 0 0 Z " fill="#DDE0E5" transform="translate(885,506)"/>
<path d="M0 0 C0.66 0.66 1.32 1.32 2 2 C-1.74348958 5.74348958 -5.48697917 9.48697917 -9.23046875 13.23046875 C-10.20439575 14.20536255 -10.20439575 14.20536255 -11.19799805 15.19995117 C-12.70020558 16.70053052 -14.20870299 18.19480985 -15.71875 19.6875 C-17.99885542 21.99883974 -20.16703169 24.37612074 -22.3125 26.8125 C-23.00988281 27.60269531 -23.70726563 28.39289062 -24.42578125 29.20703125 C-24.94527344 29.79871094 -25.46476562 30.39039063 -26 31 C-26.66 30.01 -27.32 29.02 -28 28 C-18.76 18.76 -9.52 9.52 0 0 Z " fill="#132032" transform="translate(127,683)"/>
<path d="M0 0 C0.66 0.66 1.32 1.32 2 2 C1.23816406 2.63615234 1.23816406 2.63615234 0.4609375 3.28515625 C-2.94184721 6.18453274 -6.15917649 9.03921777 -9 12.5 C-10.99873867 14.9175725 -13.03963861 16.97857706 -15.4375 19 C-22.37128863 24.8754021 -28.61929356 31.53828849 -35 38 C-35.66 37.67 -36.32 37.34 -37 37 C-24.79 24.79 -12.58 12.58 0 0 Z " fill="#D4D7DC" transform="translate(1009,381)"/>
<path d="M0 0 C0.66 0.66 1.32 1.32 2 2 C-1.0318416 5.1062356 -4.07359732 8.20231517 -7.12475586 11.28955078 C-8.1603873 12.34022889 -9.19330525 13.39358908 -10.22338867 14.44970703 C-11.70819768 15.97108063 -13.20263661 17.48240451 -14.69921875 18.9921875 C-15.59471436 19.90339355 -16.49020996 20.81459961 -17.4128418 21.75341797 C-19.91768952 23.92852495 -21.86355628 25.00642208 -25 26 C-20.03805145 20.00499003 -14.6523376 14.53572963 -9.125 9.0625 C-8.24585938 8.18787109 -7.36671875 7.31324219 -6.4609375 6.41210938 C-4.3095654 4.27242952 -2.15588208 2.13513403 0 0 Z " fill="#162032" transform="translate(372,433)"/>
<path d="M0 0 C0.66 0.66 1.32 1.32 2 2 C-5.59 9.59 -13.18 17.18 -21 25 C-21.99 24.67 -22.98 24.34 -24 24 C-16.08 16.08 -8.16 8.16 0 0 Z " fill="#131F31" transform="translate(394,647)"/>
<path d="M0 0 C0.33 0.99 0.66 1.98 1 3 C-6.26 10.26 -13.52 17.52 -21 25 C-21.99 24.67 -22.98 24.34 -24 24 C-16.08 16.08 -8.16 8.16 0 0 Z " fill="#232D3E" transform="translate(508,531)"/>
<path d="M0 0 C0.66 0.66 1.32 1.32 2 2 C-1.07920783 5.10828228 -4.16406929 8.2108933 -7.25 11.3125 C-8.12269531 12.19357422 -8.99539062 13.07464844 -9.89453125 13.98242188 C-11.16103516 15.25375977 -11.16103516 15.25375977 -12.453125 16.55078125 C-13.22817383 17.33106689 -14.00322266 18.11135254 -14.80175781 18.9152832 C-16.77898134 20.79039557 -18.78300558 22.42116433 -21 24 C-21.66 23.67 -22.32 23.34 -23 23 C-15.41 15.41 -7.82 7.82 0 0 Z " fill="#0F1B2D" transform="translate(238,570)"/>
<path d="M0 0 C0.33 0.99 0.66 1.98 1 3 C-5.6 9.6 -12.2 16.2 -19 23 C-19.99 22.67 -20.98 22.34 -22 22 C-14.74 14.74 -7.48 7.48 0 0 Z " fill="#1F2A3B" transform="translate(167,642)"/>
<path d="M0 0 C0.33 0.99 0.66 1.98 1 3 C-5.6 9.6 -12.2 16.2 -19 23 C-19.99 22.67 -20.98 22.34 -22 22 C-14.74 14.74 -7.48 7.48 0 0 Z " fill="#1B2536" transform="translate(472,331)"/>
<path d="M0 0 C0 4.95127566 -3.71576607 7.52954662 -7 11 C-7.4444043 11.47163574 -7.88880859 11.94327148 -8.34667969 12.42919922 C-9.78248903 13.94313782 -11.23213491 15.4423655 -12.6875 16.9375 C-13.59886719 17.87464844 -14.51023437 18.81179688 -15.44921875 19.77734375 C-17.92806036 21.93731446 -18.92238355 22.39623362 -22 23 C-17.47008204 17.56266945 -12.65705784 12.53541069 -7.625 7.5625 C-6.88894531 6.83095703 -6.15289062 6.09941406 -5.39453125 5.34570312 C-3.59863926 3.56147277 -1.80044015 1.77963876 0 0 Z " fill="#242F3E" transform="translate(435,605)"/>
<path d="M0 0 C0.99 0.33 1.98 0.66 3 1 C-3.6 7.6 -10.2 14.2 -17 21 C-17.99 20.67 -18.98 20.34 -20 20 C-13.4 13.4 -6.8 6.8 0 0 Z " fill="#162334" transform="translate(608,430)"/>
<path d="M0 0 C0.33 0.66 0.66 1.32 1 2 C-2.88676135 6.60748531 -6.92571177 11.04998458 -11.125 15.375 C-11.93195313 16.20773437 -12.73890625 17.04046875 -13.5703125 17.8984375 C-15.99781598 19.99811093 -17.96835067 21.01822032 -21 22 C-16.61557474 16.74825074 -11.99157907 11.86777527 -7.125 7.0625 C-6.43664062 6.37865234 -5.74828125 5.69480469 -5.0390625 4.99023438 C-3.36166489 3.32448536 -1.68196209 1.6611378 0 0 Z " fill="#202B3C" transform="translate(403,401)"/>
<path d="M0 0 C0.33 0.66 0.66 1.32 1 2 C-4.34388455 8.33480354 -10.08833812 14.19539034 -16 20 C-16.66 19.67 -17.32 19.34 -18 19 C-12.20862223 12.44191501 -6.25299712 6.11995462 0 0 Z " fill="#273242" transform="translate(512,290)"/>
<path d="M0 0 C0 4.04863987 -1.29319268 5.01557142 -4 8 C-5.75020398 9.53904248 -7.5344298 11.02841009 -9.33203125 12.51171875 C-11.21436169 14.10127444 -11.21436169 14.10127444 -13.1875 16.8125 C-15.2070289 19.24986247 -16.01396112 19.42504841 -19 20 C-13.17371096 12.84198775 -6.5617015 6.47408234 0 0 Z " fill="#323C4B" transform="translate(805,467)"/>
<path d="M0 0 C0.8971875 0.5259375 0.8971875 0.5259375 1.8125 1.0625 C-3.0116603 4.03121403 -7.6032782 5.14743452 -13.1875 4.0625 C-14.95703125 2.5390625 -14.95703125 2.5390625 -16.1875 1.0625 C-15.42824219 1.00191406 -14.66898437 0.94132813 -13.88671875 0.87890625 C-12.89285156 0.79511719 -11.89898437 0.71132813 -10.875 0.625 C-9.88886719 0.54378906 -8.90273438 0.46257813 -7.88671875 0.37890625 C-0.99962121 -0.42840909 -0.99962121 -0.42840909 0 0 Z " fill="#1A2535" transform="translate(361.1875,798.9375)"/>
<path d="M0 0 C0.33 0.66 0.66 1.32 1 2 C-7.07744875 12.74259681 -7.07744875 12.74259681 -13 16 C-13.66 15.67 -14.32 15.34 -15 15 C-10.05 10.05 -5.1 5.1 0 0 Z " fill="#253041" transform="translate(214,594)"/>
<path d="M0 0 C0.33 0.99 0.66 1.98 1 3 C-5.27 9.27 -11.54 15.54 -18 22 C-18.66 21.67 -19.32 21.34 -20 21 C-19.53625977 20.54149658 -19.07251953 20.08299316 -18.59472656 19.6105957 C-16.47714269 17.51391253 -14.36354872 15.41325041 -12.25 13.3125 C-11.52039063 12.59126953 -10.79078125 11.87003906 -10.0390625 11.12695312 C-6.46292552 7.56707131 -3.03395543 4.04793527 0 0 Z " fill="#E8EAED" transform="translate(885,506)"/>
<path d="M0 0 C0.66 0.66 1.32 1.32 2 2 C-1.96 5.96 -5.92 9.92 -10 14 C-10.66 13.34 -11.32 12.68 -12 12 C-8.04 8.04 -4.08 4.08 0 0 Z " fill="#121D2F" transform="translate(536,266)"/>
<path d="M0 0 C-1.53643852 3.68069887 -3.78150945 5.98775204 -6.625 8.75 C-7.85089844 9.94882812 -7.85089844 9.94882812 -9.1015625 11.171875 C-9.72804688 11.77515625 -10.35453125 12.3784375 -11 13 C-11.66 12.34 -12.32 11.68 -13 11 C-11.21427748 9.16052663 -9.42197551 7.32842259 -7.625 5.5 C-7.11710937 4.97535156 -6.60921875 4.45070313 -6.0859375 3.91015625 C-2.2265625 0 -2.2265625 0 0 0 Z " fill="#2B3544" transform="translate(439,722)"/>
<path d="M0 0 C0.99 0.33 1.98 0.66 3 1 C-0.96 4.96 -4.92 8.92 -9 13 C-9.66 12.34 -10.32 11.68 -11 11 C-9.68 10.34 -8.36 9.68 -7 9 C-7 8.34 -7 7.68 -7 7 C-6.34 7 -5.68 7 -5 7 C-4.731875 6.401875 -4.46375 5.80375 -4.1875 5.1875 C-3.01506533 3.02775192 -1.80630718 1.64209744 0 0 Z " fill="#283242" transform="translate(418,505)"/>
<path d="M0 0 C0.66 0.99 1.32 1.98 2 3 C0.92643323 4.15498897 -0.15929788 5.29867867 -1.25 6.4375 C-1.85328125 7.07558594 -2.4565625 7.71367188 -3.078125 8.37109375 C-5.10048016 10.08516306 -6.41270605 10.59358878 -9 11 C-8.06558465 9.72689688 -7.12732889 8.456612 -6.1875 7.1875 C-5.66542969 6.47980469 -5.14335938 5.77210938 -4.60546875 5.04296875 C-3.16871123 3.21468607 -1.68184237 1.60103312 0 0 Z " fill="#202C3F" transform="translate(92,718)"/>
<path d="M0 0 C0.66 0.66 1.32 1.32 2 2 C1.49210938 2.42410156 0.98421875 2.84820312 0.4609375 3.28515625 C-4.16626354 7.22780882 -8.15591946 11.29100134 -12 16 C-12.66 15.34 -13.32 14.68 -14 14 C-9.38 9.38 -4.76 4.76 0 0 Z " fill="#E3E4E8" transform="translate(1009,381)"/>
<path d="M0 0 C1.18851563 0.00902344 2.37703125 0.01804687 3.6015625 0.02734375 C4.51679687 0.03894531 5.43203125 0.05054688 6.375 0.0625 C6.375 0.3925 6.375 0.7225 6.375 1.0625 C5.61574219 1.09988281 4.85648438 1.13726562 4.07421875 1.17578125 C3.08035156 1.24152344 2.08648438 1.30726563 1.0625 1.375 C0.07636719 1.43300781 -0.90976562 1.49101562 -1.92578125 1.55078125 C-4.95436022 2.12494021 -5.63175673 2.83748426 -7.625 5.0625 C-10.8125 5.75 -10.8125 5.75 -13.625 6.0625 C-8.71239666 1.02061763 -7.02742014 -0.06889628 0 0 Z " fill="#394251" transform="translate(1009.625,266.9375)"/>
<path d="M0 0 C0.66 0.66 1.32 1.32 2 2 C-1.3 5.3 -4.6 8.6 -8 12 C-8.66 11.34 -9.32 10.68 -10 10 C-6.7 6.7 -3.4 3.4 0 0 Z " fill="#141F31" transform="translate(178,631)"/>
<path d="M0 0 C0 3 0 3 -1.8984375 5.15625 C-2.71570313 5.9296875 -3.53296875 6.703125 -4.375 7.5 C-6.95217904 9.95445623 -9.01930122 12.02895183 -11 15 C-11.99 14.67 -12.98 14.34 -14 14 C-9.38 9.38 -4.76 4.76 0 0 Z " fill="#394453" transform="translate(351,690)"/>
<path d="M0 0 C0.66 0.66 1.32 1.32 2 2 C-5.29840547 9.48291572 -5.29840547 9.48291572 -9 12 C-9.66 11.67 -10.32 11.34 -11 11 C-7.37 7.37 -3.74 3.74 0 0 Z " fill="#162234" transform="translate(226,582)"/>
<path d="M0 0 C2.95012857 1.36970255 5.5652222 2.82609125 8 5 C8 5.99 8 6.98 8 8 C8.99 8.33 9.98 8.66 11 9 C10.34 9.66 9.68 10.32 9 11 C7.49403892 9.54782324 5.99537896 8.08807139 4.5 6.625 C3.6646875 5.81289063 2.829375 5.00078125 1.96875 4.1640625 C0 2 0 2 0 0 Z " fill="#2F3949" transform="translate(1423,789)"/>
<path d="M0 0 C0.66 0.99 1.32 1.98 2 3 C-0.64 5.64 -3.28 8.28 -6 11 C-6.66 10.34 -7.32 9.68 -8 9 C-5.36 6.03 -2.72 3.06 0 0 Z " fill="#162234" transform="translate(194,614)"/>
<path d="M0 0 C0.66 0.66 1.32 1.32 2 2 C-0.64 4.64 -3.28 7.28 -6 10 C-6.99 9.67 -7.98 9.34 -9 9 C-6.03 6.03 -3.06 3.06 0 0 Z " fill="#142031" transform="translate(445,595)"/>
<path d="M0 0 C3.59905908 0.55550695 4.99909799 1.74887248 7.25 4.5625 C8.03117188 5.52349609 8.03117188 5.52349609 8.828125 6.50390625 C9.21484375 6.99761719 9.6015625 7.49132812 10 8 C7 8 7 8 5.17578125 6.50390625 C4.56089844 5.86324219 3.94601562 5.22257813 3.3125 4.5625 C2.68988281 3.92441406 2.06726563 3.28632812 1.42578125 2.62890625 C0 1 0 1 0 0 Z " fill="#111D2F" transform="translate(741,588)"/>
<path d="M0 0 C0.66 0.66 1.32 1.32 2 2 C-0.31 4.31 -2.62 6.62 -5 9 C-5.66 8.34 -6.32 7.68 -7 7 C-4.69 4.69 -2.38 2.38 0 0 Z " fill="#142234" transform="translate(79,732)"/>
<path d="M0 0 C5.01113235 1.4317521 6.94469549 3.98445693 10 8 C6.40094092 7.44449305 5.00090201 6.25112752 2.75 3.4375 C2.22921875 2.79683594 1.7084375 2.15617187 1.171875 1.49609375 C0.78515625 1.00238281 0.3984375 0.50867188 0 0 Z " fill="#262F3F" transform="translate(852,343)"/>
<path d="M0 0 C0 3.77910478 -0.99703962 4.46106101 -3.5 7.1875 C-4.1496875 7.90292969 -4.799375 8.61835938 -5.46875 9.35546875 C-5.9740625 9.89816406 -6.479375 10.44085938 -7 11 C-7.99 10.67 -8.98 10.34 -10 10 C-6.7 6.7 -3.4 3.4 0 0 Z " fill="#363E4D" transform="translate(642,158)"/>
<path d="M0 0 C0.66 0.66 1.32 1.32 2 2 C0.02 3.98 -1.96 5.96 -4 8 C-4.99 7.67 -5.98 7.34 -7 7 C-4.69 4.69 -2.38 2.38 0 0 Z " fill="#121E2F" transform="translate(533,506)"/>
<path d="M0 0 C0.33 0.99 0.66 1.98 1 3 C-0.65 4.65 -2.3 6.3 -4 8 C-4.99 7.67 -5.98 7.34 -7 7 C-4.69 4.69 -2.38 2.38 0 0 Z " fill="#182335" transform="translate(523,516)"/>
<path d="M0 0 C0.33 1.32 0.66 2.64 1 4 C-0.65 5.32 -2.3 6.64 -4 8 C-4.33 7.01 -4.66 6.02 -5 5 C-3.35 3.35 -1.7 1.7 0 0 Z " fill="#1E293B" transform="translate(104,706)"/>
<path d="M0 0 C0.66 0.66 1.32 1.32 2 2 C-1.465 4.97 -1.465 4.97 -5 8 C-5 5 -5 5 -2.5 2.3125 C-1.675 1.549375 -0.85 0.78625 0 0 Z " fill="#121D2F" transform="translate(421,383)"/>
<path d="M0 0 C0.33 0.66 0.66 1.32 1 2 C-0.65 3.98 -2.3 5.96 -4 8 C-4.99 7.67 -5.98 7.34 -7 7 C-4.69 4.69 -2.38 2.38 0 0 Z " fill="#1E2738" transform="translate(520,282)"/>
<path d="M0 0 C0.33 0.99 0.66 1.98 1 3 C-1.97 5.475 -1.97 5.475 -5 8 C-5 5 -5 5 -2.5 2.3125 C-1.675 1.549375 -0.85 0.78625 0 0 Z " fill="#242E3D" transform="translate(431,492)"/>
<path d="M0 0 C0 3.93169105 -1.39419615 5.16427228 -4 8 C-4.66 8 -5.32 8 -6 8 C-4.55746343 4.63408134 -2.66735273 2.48952921 0 0 Z " fill="#242F3F" transform="translate(805,467)"/>
<path d="M0 0 C1.98 1.65 3.96 3.3 6 5 C5.34 5.66 4.68 6.32 4 7 C2.35 5.02 0.7 3.04 -1 1 C-0.67 0.67 -0.34 0.34 0 0 Z " fill="#162233" transform="translate(1304,669)"/>
<path d="M0 0 C1.98 1.65 3.96 3.3 6 5 C5.34 5.66 4.68 6.32 4 7 C2.35 5.02 0.7 3.04 -1 1 C-0.67 0.67 -0.34 0.34 0 0 Z " fill="#111D30" transform="translate(1142,392)"/>
<path d="M0 0 C0.66 0.66 1.32 1.32 2 2 C-0.97 4.475 -0.97 4.475 -4 7 C-4 4 -4 4 -2 1.8125 C-1.34 1.214375 -0.68 0.61625 0 0 Z " fill="#172334" transform="translate(983,286)"/>
</svg>
